<?xml version="1.0" encoding="UTF-8"?>
<svg id="Calque_1" data-name="Calque 1" xmlns="http://www.w3.org/2000/svg" viewBox="0 0 268.17 140.01">
  <defs>
    <style>
      .cls-1 {
        fill: #414342;
      }

      .cls-2, .cls-3 {
        fill: #282727;
      }

      .cls-4 {
        fill: #5e6261;
      }

      .cls-3, .cls-5, .cls-6, .cls-7 {
        stroke-miterlimit: 10;
      }

      .cls-3, .cls-6, .cls-7 {
        stroke: #282727;
      }

      .cls-8, .cls-5, .cls-6 {
        fill: #fff;
      }

      .cls-5 {
        stroke: #fff;
      }

      .cls-6 {
        stroke-width: 5px;
      }

      .cls-7 {
        fill: none;
        stroke-width: 2px;
      }
    </style>
  </defs>
  <g>
    <path class="cls-8" d="M68.62,122.04c-29.46,0-53.43-23.97-53.43-53.43S39.15,15.19,68.62,15.19s53.43,23.97,53.43,53.43-23.97,53.43-53.43,53.43Z"/>
    <path class="cls-2" d="M68.62,17.69c28.08,0,50.93,22.85,50.93,50.93s-22.85,50.93-50.93,50.93-50.93-22.85-50.93-50.93,22.85-50.93,50.93-50.93M68.62,12.69c-30.89,0-55.93,25.04-55.93,55.93s25.04,55.93,55.93,55.93,55.93-25.04,55.93-55.93S99.5,12.69,68.62,12.69h0Z"/>
  </g>
  <g>
    <path class="cls-1" d="M71.48,91.19c-1.76,2.19-2.82,4.3-3.83,6.89-3.58-.04-7.02-.54-10.71-1.24.34-7.56,1.76-14.76,3.48-22.16,4.46-17.36,10.93-33.14,19.1-49.37,8.69,2.1,16.59,6.87,22.6,13.67-1.09,5.01-2.97,9.54-5.22,14.1-2.54,5.2-5.36,9.91-8.47,14.8-5.22,8.13-10.81,15.7-16.94,23.31Z"/>
    <path class="cls-1" d="M44.43,92.69c-.16-2.86-.24-5.39-1.03-7.99l-3.29-16.14c-1.71-8.39-1.57-16.85.52-25.09,1.56-5.51,3.8-10.38,7.66-14.72,8.66-4.27,18.51-5.91,28.32-4.11-6.38,12.74-11.81,25.49-16.04,38.9-3.35,10.61-5.7,21.37-6.54,32.6-3.25-1.01-6.35-1.97-9.59-3.45Z"/>
    <path class="cls-1" d="M70.72,98.2c.88-2.45,2.33-4.37,3.93-6.36,6.56-8.18,12.61-16.53,18.15-25.47,4.83-7.9,8.97-15.58,11.66-24.56,6.97,9.33,9.94,20.65,8.79,32.07-8.05,17.14-23.92,24.38-42.52,24.32Z"/>
    <path class="cls-1" d="M40.59,85.18c.42,1.98.91,3.8.8,5.96-4.78-2.45-8.74-5.65-12.46-9.56-2.09-2.93-4.97-5.94-5.82-9.61-1.02-15.12,6.08-29.93,18.55-39.13-6.23,12.26-6.59,24.61-4.13,37.83l3.06,14.51Z"/>
    <path class="cls-1" d="M86.84,109.62c-4.41.27-9.62.48-13.61-1.71-2.45-1.35-3.68-3.93-3.19-6.81,16.16.08,30.33-4.51,41.03-17.7-3.55,11.38-11.59,20.51-21.69,26.05-.95-.12-1.69-.1-2.54.17Z"/>
    <path class="cls-1" d="M72.82,110.91c2.72,1.4,5.53,1.37,8.58,1.88-7.56,2.36-15.54,2.81-23.28,1.07-1.21-4.59-1.41-9.28-1.31-14.04,3.65.64,6.87.99,10.35,1.25-.57,4.39,1.67,8.09,5.66,9.84Z"/>
    <path class="cls-1" d="M54.85,113.01c-7.05-2.13-13.33-5.87-18.54-11,3.74-.61,6.4-2.8,7.45-6.41,3.36,1.43,6.61,2.63,10.14,3.55-.13,4.64.11,8.93.94,13.87Z"/>
    <path class="cls-1" d="M41.03,94.22c-.26,3.5-4.1,5.59-7.52,4.81-4.38-5.44-7.76-11.53-9.23-18.58,4.62,5.93,10.12,10.46,16.75,13.77Z"/>
  </g>
  <path class="cls-6" d="M105.83,98.98l2.54,2.29,3.41.18c2,.1,3.59,1.7,3.7,3.7l.18,3.41,2.29,2.54c1.34,1.49,1.34,3.74,0,5.23l-2.29,2.54-.18,3.41c-.1,2-1.7,3.59-3.7,3.7l-3.41.18-2.54,2.29c-1.49,1.34-3.74,1.34-5.23,0l-2.54-2.29-3.41-.18c-2-.1-3.59-1.7-3.7-3.7l-.18-3.41-2.29-2.54c-1.34-1.49-1.34-3.74,0-5.23l2.29-2.54.18-3.41c.1-2,1.7-3.59,3.7-3.7l3.41-.18,2.54-2.29c1.49-1.34,3.74-1.34,5.23,0Z"/>
  <path class="cls-3" d="M99.79,117.63c3.25,2.42,9.02-1.37,3.23-3.53-7.25-2.22-1.37-8.56,3.59-5.87l-.46,1.22c-.99-.85-5.21-.71-4.84,1.19.01,2.49,6.52,2.54,5.81,5.65.47,3.09-5.36,4.19-7.75,2.6l.42-1.26Z"/>
  <line class="cls-7" x1="103.21" y1="105.97" x2="103.21" y2="121.43"/>
  <g>
    <path class="cls-2" d="M134.91,78.63l-7.07-24.74h5.71l4.1,17.18h.22l4.5-17.18h4.9l4.5,17.23h.22l4.1-17.23h5.71l-7.09,24.74h-5.1l-4.68-16.17h-.2l-4.7,16.17h-5.11Z"/>
    <path class="cls-2" d="M170.04,79c-1.87,0-3.49-.4-4.86-1.2-1.37-.8-2.42-1.92-3.15-3.35-.74-1.43-1.1-3.1-1.1-5.01s.37-3.61,1.1-5.04c.74-1.43,1.79-2.55,3.15-3.35,1.37-.8,2.99-1.2,4.86-1.2s3.51.4,4.87,1.2c1.37.8,2.42,1.92,3.15,3.35.74,1.43,1.1,3.11,1.1,5.04s-.37,3.57-1.1,5.01c-.74,1.43-1.79,2.55-3.15,3.35-1.37.8-2.99,1.2-4.87,1.2ZM170.07,74.98c.85,0,1.57-.24,2.14-.72.58-.48,1.01-1.14,1.3-1.98.29-.84.44-1.8.44-2.87s-.15-2.04-.44-2.87c-.29-.83-.73-1.48-1.3-1.96s-1.29-.71-2.14-.71-1.59.24-2.17.71c-.58.48-1.02,1.13-1.31,1.96-.29.83-.44,1.79-.44,2.87s.15,2.03.44,2.87c.29.84.73,1.5,1.31,1.98.58.48,1.3.72,2.17.72Z"/>
    <path class="cls-2" d="M181.44,78.63v-18.56h4.96v3.25h.2c.34-1.15.91-2.02,1.71-2.62.8-.59,1.71-.89,2.74-.89.27,0,.54.01.84.04.29.03.56.07.79.14v4.55c-.24-.08-.58-.14-1-.19-.43-.05-.82-.07-1.19-.07-.74,0-1.41.16-2.01.49-.6.33-1.07.78-1.4,1.36-.34.58-.51,1.25-.51,2v10.49h-5.13Z"/>
    <path class="cls-2" d="M204.98,60.07v3.88h-11.17v-3.88h11.17ZM196.35,55.65h5.13v17.27c0,.62.14,1.08.42,1.37.28.29.72.44,1.33.44.2,0,.42-.02.66-.05s.45-.07.63-.12l.81,3.85c-.56.17-1.11.29-1.64.37-.53.08-1.04.12-1.55.12-1.85,0-3.28-.46-4.28-1.39-1.01-.92-1.51-2.23-1.51-3.91v-17.95Z"/>
    <path class="cls-2" d="M212.73,67.91v10.72h-5.13v-24.74h4.96v9.48h.23c.42-1.1,1.1-1.96,2.03-2.59.94-.63,2.11-.95,3.51-.95,1.28,0,2.41.28,3.37.84.96.56,1.71,1.36,2.25,2.4.54,1.04.81,2.29.81,3.75v11.8h-5.15v-10.89c0-1.14-.29-2.03-.87-2.67-.58-.64-1.4-.96-2.45-.96-.71,0-1.33.15-1.86.46-.53.3-.95.74-1.25,1.3-.3.56-.46,1.25-.46,2.04Z"/>
  </g>
  <g>
    <path class="cls-2" d="M127.75,85.55v-4.32h20.32v4.32h-7.57v20.42h-5.16v-20.42h-7.59Z"/>
    <path class="cls-2" d="M155.36,95.24v10.72h-5.13v-24.74h4.96v9.48h.23c.42-1.1,1.1-1.96,2.03-2.59.94-.63,2.11-.95,3.51-.95,1.28,0,2.41.28,3.37.84.96.56,1.71,1.36,2.25,2.4.54,1.04.81,2.29.81,3.75v11.8h-5.15v-10.89c0-1.14-.29-2.03-.87-2.67-.58-.64-1.4-.96-2.45-.96-.71,0-1.33.15-1.86.46-.53.3-.95.74-1.25,1.3-.3.56-.46,1.25-.46,2.04Z"/>
    <path class="cls-2" d="M178.87,106.33c-1.9,0-3.55-.39-4.93-1.16s-2.44-1.88-3.18-3.31c-.74-1.43-1.1-3.13-1.1-5.09s.37-3.58,1.1-5.01c.74-1.44,1.78-2.56,3.12-3.37,1.34-.81,2.92-1.21,4.74-1.21,1.23,0,2.37.2,3.44.59,1.06.39,1.99.98,2.79,1.76.8.78,1.42,1.76,1.86,2.94.44,1.18.66,2.56.66,4.14v1.39h-15.67v-3.17h13.18l-2.39.83c0-.94-.14-1.76-.43-2.46s-.72-1.24-1.29-1.62c-.57-.38-1.28-.57-2.12-.57s-1.55.19-2.13.58c-.58.39-1.03.91-1.34,1.58s-.46,1.43-.46,2.29v2.24c0,1.01.18,1.87.53,2.58.35.71.85,1.26,1.49,1.64.64.38,1.37.57,2.2.57.58,0,1.1-.08,1.56-.25s.87-.41,1.2-.73c.34-.32.59-.71.76-1.16l4.75.32c-.23,1.14-.72,2.13-1.45,2.98-.74.85-1.68,1.51-2.85,1.98-1.16.47-2.51.71-4.03.71Z"/>
  </g>
  <g>
    <path class="cls-2" d="M195.51,105.97v-24.74h9.89c1.82,0,3.33.27,4.55.81s2.13,1.29,2.75,2.24c.61.95.92,2.05.92,3.29,0,.96-.2,1.81-.59,2.54-.39.73-.92,1.33-1.59,1.79-.67.46-1.44.79-2.3.98v.25c.94.04,1.83.31,2.66.8s1.5,1.17,2.02,2.05c.52.88.77,1.93.77,3.15,0,1.31-.32,2.48-.97,3.51-.65,1.03-1.6,1.85-2.86,2.44-1.26.59-2.82.89-4.68.89h-10.56ZM200.72,91.59h3.88c.72,0,1.36-.13,1.92-.38.56-.25,1-.62,1.32-1.09.32-.47.48-1.03.48-1.69,0-.89-.31-1.6-.94-2.15-.63-.55-1.52-.82-2.68-.82h-3.98v6.13ZM200.72,101.7h4.28c1.45,0,2.51-.28,3.18-.85.67-.56,1-1.31,1-2.24,0-.69-.16-1.29-.49-1.82-.33-.53-.79-.94-1.4-1.24s-1.33-.45-2.17-.45h-4.4v6.59Z"/>
    <path class="cls-2" d="M222.06,106.32c-1.17,0-2.23-.21-3.16-.62-.93-.42-1.67-1.03-2.2-1.85s-.8-1.84-.8-3.05c0-1.04.19-1.91.56-2.6.38-.69.89-1.25,1.54-1.69s1.39-.76,2.22-.98,1.71-.38,2.64-.46c1.07-.1,1.94-.2,2.59-.3s1.13-.25,1.44-.46c.3-.21.46-.5.46-.89v-.08c0-.76-.24-1.36-.72-1.78-.48-.42-1.16-.63-2.03-.63-.92,0-1.65.2-2.2.61-.55.4-.91.92-1.09,1.54l-4.76-.38c.24-1.13.72-2.11,1.43-2.93.71-.83,1.62-1.46,2.75-1.91,1.12-.45,2.43-.67,3.91-.67,1.03,0,2.01.12,2.96.37s1.78.62,2.52,1.12c.74.5,1.32,1.15,1.75,1.95s.65,1.74.65,2.84v12.52h-4.9v-2.59h-.13c-.3.59-.7,1.1-1.2,1.54-.5.44-1.1.78-1.79,1.03-.7.25-1.5.37-2.42.37ZM223.53,102.77c.75,0,1.42-.15,2-.46.58-.3,1.04-.71,1.36-1.23.33-.52.49-1.09.49-1.74v-1.98c-.16.1-.37.19-.66.28-.28.09-.59.17-.94.23s-.69.12-1.03.17c-.34.05-.65.1-.93.14-.61.09-1.14.23-1.59.42-.45.19-.8.45-1.05.78-.25.33-.37.73-.37,1.22,0,.7.25,1.23.76,1.59s1.16.55,1.96.55Z"/>
    <path class="cls-2" d="M243.8,113.31c-2.5,0-4.46-.5-5.88-1.49-1.42-.99-2.28-2.22-2.59-3.69l4.75-.63c.14.38.37.72.68,1.05s.72.58,1.25.77c.52.19,1.16.29,1.91.29,1.12,0,2.04-.27,2.77-.81.73-.54,1.1-1.44,1.1-2.71v-3.4h-.22c-.22.51-.56,1-1.01,1.46s-1.04.84-1.74,1.13-1.55.43-2.54.43c-1.39,0-2.66-.32-3.79-.97-1.13-.65-2.04-1.64-2.72-2.98-.68-1.34-1.02-3.03-1.02-5.08s.35-3.87,1.04-5.28c.69-1.41,1.61-2.46,2.75-3.16,1.14-.7,2.39-1.05,3.75-1.05,1.04,0,1.91.17,2.61.52.7.35,1.28.78,1.72,1.3s.77,1.04,1,1.54h.2v-3.14h5.06v18.76c0,1.57-.39,2.89-1.16,3.95s-1.84,1.86-3.2,2.39-2.93.8-4.7.8ZM243.9,101.84c1.24,0,2.2-.46,2.88-1.38.68-.92,1.02-2.19,1.02-3.82,0-1.08-.15-2.03-.46-2.83-.3-.8-.74-1.43-1.32-1.88-.58-.45-1.28-.67-2.12-.67s-1.55.23-2.13.69c-.58.46-1.02,1.09-1.32,1.9s-.45,1.74-.45,2.79.15,1.98.45,2.76c.3.78.74,1.38,1.32,1.8.58.42,1.29.63,2.13.63Z"/>
  </g>
  <g>
    <path class="cls-4" d="M245.49,58.91h-8.7c-3.11,2.69-7.33,8.76-7.17,11.55-.37,6.01,4.06,7.12,4.06,7.12,0,0,4.22,1.95,10.55,1.27,6.33-.69,8.23-3.38,8.6-5.75.69-6.07-7.33-14.19-7.33-14.19Z"/>
    <path class="cls-4" d="M237,57.91h8.44s3.47-4.08,2.57-5.48c-.46-.73-3.6,1.79-3.6,1.79,0,0-1.16-.24-2.01-1.92-.36-.45-.82-.7-1.03-.63-.21.08-.62.08-.87.49-.26.41-1.08,2.19-1.72,2.14-.64-.05-2.96-1.7-2.96-1.7,0,0-.85-.64-1.41.13-.08.69.15,1.34.15,1.34,0,0,.87,2.26,2.44,3.85Z"/>
  </g>
  <path class="cls-5" d="M240.22,70.12c-.59-2.34,2.58-2.5,2.72-4.41-.02-2.53-4.37-2.37-4.31.13h-.64c.4-5.14,9.08-1.11,4.1,1.99-.97.51-1.36,1.23-1.24,2.29h-.63ZM240.55,73.01c-.72.03-.71-1.03,0-1,.71-.02.71,1.03,0,1Z"/>
</svg>