<?xml version="1.0" encoding="UTF-8"?>
<svg id="Calque_1" data-name="Calque 1" xmlns="http://www.w3.org/2000/svg" viewBox="0 0 132.87 132.64">
  <defs>
    <style>
      .cls-1 {
        fill: #414342;
      }

      .cls-2, .cls-3 {
        fill: #282727;
      }

      .cls-3, .cls-4, .cls-5 {
        stroke: #282727;
        stroke-miterlimit: 10;
      }

      .cls-6, .cls-4 {
        fill: #fff;
      }

      .cls-4 {
        stroke-width: 5px;
      }

      .cls-5 {
        fill: none;
        stroke-width: 2px;
      }
    </style>
  </defs>
  <g>
    <path class="cls-6" d="M64.26,117.45c-29.46,0-53.43-23.97-53.43-53.43S34.8,10.6,64.26,10.6s53.43,23.97,53.43,53.43-23.97,53.43-53.43,53.43Z"/>
    <path class="cls-2" d="M64.26,13.1c28.08,0,50.93,22.85,50.93,50.93s-22.85,50.93-50.93,50.93S13.33,92.11,13.33,64.03,36.17,13.1,64.26,13.1M64.26,8.1c-30.89,0-55.93,25.04-55.93,55.93s25.04,55.93,55.93,55.93,55.93-25.04,55.93-55.93S95.14,8.1,64.26,8.1h0Z"/>
  </g>
  <g>
    <path class="cls-1" d="M67.43,85.88c-1.76,2.19-2.82,4.3-3.83,6.89-3.58-.04-7.02-.54-10.71-1.24.34-7.56,1.76-14.76,3.48-22.16,4.46-17.36,10.93-33.14,19.1-49.37,8.69,2.1,16.59,6.87,22.6,13.67-1.09,5.01-2.97,9.54-5.22,14.1-2.54,5.2-5.36,9.91-8.47,14.8-5.22,8.13-10.81,15.7-16.94,23.31Z"/>
    <path class="cls-1" d="M40.38,87.39c-.16-2.86-.24-5.39-1.03-7.99l-3.29-16.14c-1.71-8.39-1.57-16.85.52-25.09,1.56-5.51,3.8-10.38,7.66-14.72,8.66-4.27,18.51-5.91,28.32-4.11-6.38,12.74-11.81,25.49-16.04,38.9-3.35,10.61-5.7,21.37-6.54,32.6-3.25-1.01-6.35-1.97-9.59-3.45Z"/>
    <path class="cls-1" d="M66.67,92.89c.88-2.45,2.33-4.37,3.93-6.36,6.56-8.18,12.61-16.53,18.15-25.47,4.83-7.9,8.97-15.58,11.66-24.56,6.97,9.33,9.94,20.65,8.79,32.07-8.05,17.14-23.92,24.38-42.52,24.32Z"/>
    <path class="cls-1" d="M36.54,79.88c.42,1.98.91,3.8.8,5.96-4.78-2.45-8.74-5.65-12.46-9.56-2.09-2.93-4.97-5.94-5.82-9.61-1.02-15.12,6.08-29.93,18.55-39.13-6.23,12.26-6.59,24.61-4.13,37.83l3.06,14.51Z"/>
    <path class="cls-1" d="M82.79,104.32c-4.41.27-9.62.48-13.61-1.71-2.45-1.35-3.68-3.93-3.19-6.81,16.16.08,30.33-4.51,41.03-17.7-3.55,11.38-11.59,20.51-21.69,26.05-.95-.12-1.69-.1-2.54.17Z"/>
    <path class="cls-1" d="M68.77,105.61c2.72,1.4,5.53,1.37,8.58,1.88-7.56,2.36-15.54,2.81-23.28,1.07-1.21-4.59-1.41-9.28-1.31-14.04,3.65.64,6.87.99,10.35,1.25-.57,4.39,1.67,8.09,5.66,9.84Z"/>
    <path class="cls-1" d="M50.8,107.7c-7.05-2.13-13.33-5.87-18.54-11,3.74-.61,6.4-2.8,7.45-6.41,3.36,1.43,6.61,2.63,10.14,3.55-.13,4.64.11,8.93.94,13.87Z"/>
    <path class="cls-1" d="M36.98,88.91c-.26,3.5-4.1,5.59-7.52,4.81-4.38-5.44-7.76-11.53-9.23-18.58,4.62,5.93,10.12,10.46,16.75,13.77Z"/>
  </g>
  <path class="cls-4" d="M101.47,94.39l2.54,2.29,3.41.18c2,.1,3.59,1.7,3.7,3.7l.18,3.41,2.29,2.54c1.34,1.49,1.34,3.74,0,5.23l-2.29,2.54-.18,3.41c-.1,2-1.7,3.59-3.7,3.7l-3.41.18-2.54,2.29c-1.49,1.34-3.74,1.34-5.23,0l-2.54-2.29-3.41-.18c-2-.1-3.59-1.7-3.7-3.7l-.18-3.41-2.29-2.54c-1.34-1.49-1.34-3.74,0-5.23l2.29-2.54.18-3.41c.1-2,1.7-3.59,3.7-3.7l3.41-.18,2.54-2.29c1.49-1.34,3.74-1.34,5.23,0Z"/>
  <path class="cls-3" d="M95.43,113.04c3.25,2.42,9.02-1.37,3.23-3.53-7.25-2.22-1.37-8.56,3.59-5.87l-.46,1.22c-.99-.85-5.21-.71-4.84,1.19.01,2.49,6.52,2.54,5.81,5.65.47,3.09-5.36,4.19-7.75,2.6l.42-1.26Z"/>
  <line class="cls-5" x1="98.85" y1="101.38" x2="98.85" y2="116.84"/>
</svg>