<?xml version="1.0" encoding="UTF-8"?>
<svg id="Calque_1" data-name="Calque 1" xmlns="http://www.w3.org/2000/svg" viewBox="0 0 135.4 130.07">
  <defs>
    <style>
      .cls-1 {
        fill: #282727;
      }
    </style>
  </defs>
  <polygon class="cls-1" points="80.02 54.6 83.37 42.91 96.07 46.29 98.06 38.8 62.78 29.42 60.79 36.91 73.32 40.24 69.85 54.6 69.77 54.6 64.92 75.01 64.68 75.98 64.68 75.99 62.41 85.56 62.02 85.56 53.94 54.6 45.14 54.6 37.06 85.47 36.67 85.47 29.31 54.6 19.05 54.6 31.75 99.04 40.93 99.04 49.37 69.99 49.73 69.99 58.14 99.04 67.3 99.04 80.03 54.6 80.02 54.6"/>
  <path class="cls-1" d="M115.83,61.32c-.69-2.16-2.06-4.08-4.12-5.77-2.06-1.69-4.85-3.01-8.35-3.96l-19.09-5.21-13.01,47.73,20.37,5.55c3.59.98,6.75,1.23,9.5.75,2.75-.48,5.02-1.55,6.81-3.2,1.79-1.66,3.03-3.74,3.72-6.26.64-2.35.7-4.51.17-6.48-.53-1.97-1.47-3.64-2.81-5.02-1.35-1.38-2.92-2.35-4.71-2.94l.13-.48c1.77.09,3.42-.14,4.95-.68,1.54-.54,2.88-1.42,4.02-2.62,1.14-1.2,1.97-2.73,2.47-4.59.65-2.39.64-4.67-.05-6.83ZM101.52,87.12c-.49,1.79-1.53,3.06-3.12,3.8-1.59.74-3.78.72-6.58-.04l-8.27-2.25,3.47-12.72,8.49,2.31c1.62.44,2.94,1.11,3.96,2.01,1.02.9,1.7,1.94,2.06,3.12.35,1.19.35,2.44-.01,3.76ZM105.21,67.02c-.34,1.26-.95,2.26-1.82,3-.87.74-1.91,1.21-3.12,1.4-1.21.2-2.51.11-3.9-.27l-7.5-2.04,3.22-11.82,7.69,2.1c2.24.61,3.82,1.61,4.74,3,.92,1.39,1.14,2.93.68,4.64Z"/>
</svg>