<?xml version="1.0" encoding="UTF-8"?>
<svg id="Calque_1" data-name="Calque 1" xmlns="http://www.w3.org/2000/svg" viewBox="0 0 44.82 44.82">
  <defs>
    <style>
      .cls-1 {
        fill: #5e6261;
      }

      .cls-2 {
        stroke-linecap: round;
      }

      .cls-2, .cls-3 {
        fill: none;
        stroke: #5e6261;
        stroke-miterlimit: 10;
      }

      .cls-3 {
        stroke-width: 2px;
      }
    </style>
  </defs>
  <circle class="cls-3" cx="22.22" cy="24.15" r="12.49"/>
  <g>
    <rect class="cls-1" x="17.1" y="7.69" width="10.24" height="1.81" rx=".5" ry=".5"/>
    <path class="cls-1" d="M26.83,8.19v.81h-9.24v-.81h9.24M26.83,7.19h-9.24c-.55,0-1,.45-1,1v.81c0,.55.45,1,1,1h9.24c.55,0,1-.45,1-1v-.81c0-.55-.45-1-1-1h0Z"/>
  </g>
  <g>
    <path class="cls-1" d="M34.49,15.57c-.14,0-.27-.06-.37-.17l-1.71-1.9c-.09-.1-.13-.23-.13-.36,0-.13.07-.26.17-.35l.6-.54c.1-.09.21-.13.33-.13.14,0,.27.06.37.17l1.71,1.9c.09.1.13.23.13.36,0,.13-.07.26-.17.35l-.6.54c-.1.09-.21.13-.33.13Z"/>
    <path class="cls-1" d="M33.39,12.63l1.71,1.9-.6.54-1.71-1.9.6-.54M33.39,11.63c-.24,0-.48.08-.67.26l-.6.54c-.2.18-.32.43-.33.69-.01.26.08.52.25.72l1.71,1.9c.18.2.43.32.69.33.02,0,.04,0,.05,0,.25,0,.48-.09.67-.26l.6-.54c.41-.37.44-1,.08-1.41l-1.71-1.9c-.2-.22-.47-.33-.74-.33h0Z"/>
  </g>
  <circle class="cls-1" cx="22.22" cy="24.15" r=".95"/>
  <line class="cls-2" x1="22.22" y1="14.33" x2="22.22" y2="21.89"/>
  <line class="cls-2" x1="31.81" y1="24.15" x2="24.57" y2="24.15"/>
</svg>