<?xml version="1.0" encoding="UTF-8"?>
<svg id="Calque_1" data-name="Calque 1" xmlns="http://www.w3.org/2000/svg" viewBox="0 0 44.82 44.82">
  <defs>
    <style>
      .cls-1 {
        fill: #5e6261;
      }

      .cls-2 {
        fill: none;
        stroke: #5e6261;
        stroke-miterlimit: 10;
      }
    </style>
  </defs>
  <g>
    <path class="cls-2" d="M32.27,12.36c-5.55,0-9.98-3.32-11.01-4.16-1.03.84-5.46,4.16-11.01,4.16,0,0-.9,10.21,0,13.12,0,0,5.54,9.53,10.81,10.01h.6c5.27-.47,10.61-10.01,10.61-10.01.9-2.91,0-13.12,0-13.12Z"/>
    <path class="cls-2" d="M21.03,8.01s.08.07.23.19c.15-.12.23-.19.23-.19"/>
  </g>
  <path class="cls-1" d="M30.17,14.24c-4.49,0-8.08-2.69-8.91-3.37-.83.68-4.42,3.37-8.91,3.37,0,0-.72,8.27,0,10.62,0,0,4.48,7.72,8.75,8.11h.49c4.27-.38,8.59-8.11,8.59-8.11.72-2.35,0-10.62,0-10.62Z"/>
</svg>