<?xml version="1.0" encoding="UTF-8"?>
<svg id="Calque_1" data-name="Calque 1" xmlns="http://www.w3.org/2000/svg" viewBox="0 0 44.82 44.82">
  <defs>
    <style>
      .cls-1 {
        stroke-linejoin: round;
        stroke-width: .5px;
      }

      .cls-1, .cls-2 {
        stroke-linecap: round;
      }

      .cls-1, .cls-2, .cls-3 {
        fill: none;
        stroke: #5e6261;
      }

      .cls-4 {
        fill: #5e6261;
      }

      .cls-2 {
        stroke-width: 2px;
      }

      .cls-2, .cls-3 {
        stroke-miterlimit: 10;
      }

      .cls-3 {
        stroke-width: 3px;
      }
    </style>
  </defs>
  <line class="cls-3" x1="9.82" y1="9.15" x2="9.82" y2="35.84"/>
  <line class="cls-3" x1="36.51" y1="34.33" x2="9.82" y2="34.33"/>
  <line class="cls-2" x1="14.49" y1="28.78" x2="20.17" y2="20.77"/>
  <line class="cls-2" x1="26.84" y1="25.21" x2="31.74" y2="18.3"/>
  <line class="cls-2" x1="20.17" y1="20.77" x2="26.82" y2="25.21"/>
  <g>
    <path class="cls-4" d="M33.35,19.42c-.1,0-.2-.03-.29-.09l-2.76-1.97c-.15-.1-.22-.28-.21-.46.02-.18.13-.33.29-.41l3.08-1.41c.07-.03.14-.04.21-.04.1,0,.2.03.29.09.15.1.22.28.21.46l-.32,3.37c-.02.18-.13.33-.29.41-.07.03-.14.04-.21.04Z"/>
    <path class="cls-4" d="M33.67,15.55h0M33.67,15.55l-.32,3.37-2.76-1.97,3.08-1.41M33.67,14.55s-.02,0-.03,0c-.14,0-.28.04-.4.1l-3.06,1.4c-.33.15-.55.46-.58.81-.03.36.12.7.42.91l2.76,1.97c.17.12.38.19.58.19.14,0,.28-.03.42-.09.33-.15.55-.46.58-.81l.32-3.3c0-.05.01-.11.01-.17,0-.55-.45-1-1-1h0ZM33.67,16.55h0,0Z"/>
  </g>
  <line class="cls-1" x1="23.84" y1="13.04" x2="23.84" y2="11.26"/>
  <line class="cls-1" x1="23.03" y1="12.15" x2="24.64" y2="12.15"/>
  <g>
    <path class="cls-4" d="M14.25,13.52c-.22,0-.41-.03-.57-.1-.16-.07-.28-.17-.37-.29-.09-.13-.14-.28-.15-.46h.44c0,.11.04.19.1.26.06.07.14.12.23.16.1.03.2.05.31.05.12,0,.23-.02.33-.06s.17-.09.23-.17c.06-.07.08-.15.08-.25,0-.09-.02-.16-.07-.21s-.11-.1-.2-.14c-.08-.04-.18-.07-.28-.09l-.34-.09c-.23-.06-.42-.16-.55-.28-.13-.12-.2-.29-.2-.49,0-.17.05-.31.14-.44.09-.12.21-.22.37-.29.16-.07.33-.1.52-.1s.37.03.52.1c.15.07.27.16.36.29.09.12.13.26.14.41h-.43c-.02-.13-.08-.24-.19-.31-.11-.07-.25-.11-.42-.11-.12,0-.22.02-.31.06s-.16.09-.2.15c-.05.06-.07.14-.07.22,0,.09.03.17.08.22.06.06.13.1.21.14.08.03.16.06.24.08l.28.08c.09.02.19.05.29.09s.19.09.27.15c.08.06.15.14.2.23.05.09.08.21.08.34,0,.16-.04.31-.13.44-.08.13-.21.23-.37.3-.16.07-.35.11-.58.11Z"/>
    <path class="cls-4" d="M16.66,11.29v.34h-1.19v-.34h1.19ZM15.79,10.77h.42v2.06c0,.1.02.17.06.22.04.05.11.07.2.07.02,0,.05,0,.07,0,.03,0,.05,0,.08-.01l.08.35s-.09.03-.14.03-.1.01-.15.01c-.19,0-.34-.05-.45-.16-.11-.11-.17-.25-.17-.42v-2.15Z"/>
    <path class="cls-4" d="M17.6,13.52c-.14,0-.26-.03-.38-.08-.11-.05-.2-.13-.27-.23-.06-.1-.1-.22-.1-.36,0-.12.02-.23.07-.3.05-.08.11-.14.19-.19.08-.05.17-.08.27-.11.1-.02.2-.04.3-.05.13-.01.24-.03.32-.04.08-.01.14-.03.18-.05.04-.02.06-.06.06-.11h0c0-.13-.03-.23-.1-.3-.07-.07-.17-.1-.31-.1s-.25.03-.34.09c-.08.06-.14.13-.17.21l-.4-.09c.05-.13.12-.24.21-.32.09-.08.2-.14.32-.18.12-.04.24-.06.37-.06.09,0,.18,0,.28.03.1.02.19.06.28.11.09.05.16.13.21.23.05.1.08.23.08.39v1.45h-.42v-.3h-.02c-.03.05-.07.11-.12.16-.05.05-.13.1-.21.13s-.19.05-.31.05ZM17.69,13.18c.12,0,.22-.02.3-.07.08-.05.15-.11.19-.18.04-.08.07-.16.07-.24v-.28s-.04.03-.09.04c-.04.01-.09.02-.15.03-.05,0-.11.02-.16.02-.05,0-.1.01-.13.02-.08.01-.16.03-.22.05-.07.02-.12.06-.16.11-.04.05-.06.11-.06.18,0,.11.04.18.12.24.08.05.18.08.3.08Z"/>
    <path class="cls-4" d="M20.1,11.29v.34h-1.19v-.34h1.19ZM19.22,10.77h.42v2.06c0,.1.02.17.06.22.04.05.11.07.2.07.02,0,.05,0,.07,0,.03,0,.05,0,.08-.01l.08.35s-.09.03-.14.03-.1.01-.15.01c-.19,0-.34-.05-.45-.16-.11-.11-.17-.25-.17-.42v-2.15Z"/>
    <path class="cls-4" d="M22,11.82l-.38.07c-.02-.07-.07-.14-.14-.2-.07-.06-.17-.09-.3-.09-.12,0-.22.03-.3.08-.08.05-.12.12-.12.21,0,.07.03.13.08.18.05.04.14.08.26.11l.35.08c.2.04.35.12.45.21.1.1.15.22.15.38,0,.13-.04.25-.11.35-.08.1-.18.18-.31.24-.13.06-.29.09-.46.09-.24,0-.44-.05-.6-.16-.15-.11-.25-.25-.28-.45l.41-.06c.03.11.08.19.16.24s.18.08.31.08c.14,0,.25-.03.33-.09s.13-.13.13-.21c0-.14-.1-.23-.31-.28l-.37-.08c-.2-.05-.35-.12-.45-.22-.1-.1-.15-.23-.15-.38,0-.13.04-.24.11-.34s.17-.17.3-.23c.13-.05.27-.08.43-.08.24,0,.42.05.56.15.13.1.22.24.27.41Z"/>
  </g>
</svg>