<?xml version="1.0" encoding="UTF-8"?>
<svg id="Calque_1" data-name="Calque 1" xmlns="http://www.w3.org/2000/svg" viewBox="0 0 44.82 44.82">
  <defs>
    <style>
      .cls-1 {
        fill: #656767;
      }

      .cls-2 {
        fill: #616564;
      }

      .cls-3 {
        fill: #636666;
      }

      .cls-4 {
        fill: #6b6c6c;
      }

      .cls-5 {
        fill: #656867;
      }

      .cls-6 {
        fill: #666968;
      }

      .cls-7 {
        fill: #606463;
      }

      .cls-8 {
        fill: #616464;
      }
    </style>
  </defs>
  <path class="cls-8" d="M23.95,9.57c-.36,1.97-1.5,3.89-2.27,5.77-.83,2.03-1.83,4.37-2.4,6.47-.71,2.61-.89,5.29-1.44,7.92l-2.51-1.15c-.34-3.64-1.84-8.04-1.42-11.67.1-.86,1.4-5.01,1.88-5.55.87-.98,3.19-1.13,4.32-1.79h3.83Z"/>
  <path class="cls-2" d="M35.22,21.57c.05.46.05,1.23,0,1.68-.29,2.49-1.64,3.81-3.76,4.99-2.32,1.3-5.35,1.96-7.98,2.2,3.68-4.64,6.88-9.6,9.11-15.12.49-.37,1.41,1.8,1.55,2.16.4,1.01.97,3.04,1.08,4.08Z"/>
  <path class="cls-3" d="M9.57,19.89c.92-2.48,1.74-4.95,3.83-6.72-.28,1.64-.99,3.22-.97,4.92.03,3.12,1.17,6.42,1.1,9.47l-3.96-3.12v-4.56Z"/>
  <path class="cls-6" d="M21.32,35.25l-2.05-.71c-.19-.28-.17-2.1-.11-2.54.05-.35-.14-.39.36-.36.31.02,1.93.21,2.01.27.09.07.49,1.51.9,2.07.36.49,1.59.82.56,1.26h-1.68Z"/>
  <path class="cls-7" d="M19.42,30.19c.05-7.24,3.44-13.58,5.97-20.14,2.49.33,4.57,1.96,6.36,3.61v.47c-2.64,5.84-5.84,11.08-9.84,16.08-.68.57-1.72.1-2.49-.02Z"/>
  <path class="cls-1" d="M22.99,31.89c3.54-.13,6.87-1.36,10.06-2.76-1.01,1.75-4.03,4.63-5.98,5.05-1.12.24-4.13-.71-4.08-2.29Z"/>
  <path class="cls-5" d="M17.72,34.05l-3.83-1.92.15-.5c.66-.2,1.08-.72,1.05-1.42l2.77,1.2-.14,2.64Z"/>
  <path class="cls-4" d="M13.84,29.29c.19.33,0,.94-.29,1.18-1.3,1.05-2.47-2.28-3.02-3.14.14-.13,3.21,1.79,3.31,1.96Z"/>
</svg>