<?xml version="1.0" encoding="UTF-8"?>
<svg id="Calque_1" data-name="Calque 1" xmlns="http://www.w3.org/2000/svg" viewBox="0 0 44.82 44.82">
  <defs>
    <style>
      .cls-1 {
        fill: #5e6261;
      }

      .cls-2 {
        fill: #e62d1f;
      }

      .cls-3 {
        fill: #f1e511;
      }
    </style>
  </defs>
  <rect class="cls-1" x="10.62" y="24.18" width="20.74" height="9.51" rx="4.6" ry="4.6"/>
  <path class="cls-2" d="M24.71,13.1c0,2.06-1.66,3.73-3.72,3.73s-3.73-1.67-3.73-3.73,1.66-3.73,3.73-3.73,3.72,1.67,3.72,3.73Z"/>
  <path class="cls-1" d="M22.4,17.26c-.41.26-.89.4-1.4.4s-1-.14-1.41-.4c0,.07-.02.13-.02.2v4.68c0,.71.58,1.3,1.3,1.3h.24c.72,0,1.3-.59,1.3-1.3v-4.68c0-.07,0-.13-.02-.2Z"/>
  <path class="cls-2" d="M15.19,22.5h2.21c.25,0,.45.2.45.45v.75h-3.1v-.76c0-.24.2-.44.44-.44Z"/>
  <path class="cls-3" d="M28.82,8.16l.58,1.56,1.56.58c.43.16.43.76,0,.92l-1.56.58-.58,1.56c-.16.43-.76.43-.92,0l-.58-1.56-1.56-.58c-.43-.16-.43-.76,0-.92l1.56-.58.58-1.56c.16-.43.76-.43.92,0Z"/>
</svg>