<?xml version="1.0" encoding="UTF-8"?>
<svg id="Calque_1" data-name="Calque 1" xmlns="http://www.w3.org/2000/svg" viewBox="0 0 44.82 44.82">
  <defs>
    <style>
      .cls-1 {
        fill: #5e6261;
      }

      .cls-2 {
        stroke-width: 2px;
      }

      .cls-2, .cls-3 {
        fill: #fff;
        stroke: #fff;
        stroke-miterlimit: 10;
      }
    </style>
  </defs>
  <g>
    <path class="cls-1" d="M17.91,16h8.7s8.02,8.12,7.33,14.19c-.37,2.37-2.27,5.06-8.6,5.75-6.33.69-10.55-1.27-10.55-1.27,0,0-4.43-1.11-4.06-7.12-.16-2.8,4.06-8.86,7.17-11.55Z"/>
    <path class="cls-1" d="M18.11,14.99h8.44s3.47-4.08,2.57-5.48c-.46-.73-3.6,1.79-3.6,1.79,0,0-1.16-.24-2.01-1.92-.36-.45-.82-.7-1.03-.63s-.62.08-.87.49-1.08,2.19-1.72,2.14-2.96-1.7-2.96-1.7c0,0-.85-.64-1.41.13-.08.69.15,1.34.15,1.34,0,0,.87,2.26,2.44,3.85Z"/>
  </g>
  <path class="cls-3" d="M22.32,29.74c-1.61.03-3.29-.76-3.42-2.45h.65c2.13,5.23,10.09-1.29,2.12-2.43-7.2-2.35,2.86-8.28,3.97-2.38h-.62c-.17-2.6-5.13-2.66-5.25,0,.32,2.37,3.8,1.72,5.23,3.06,2.1,1.82-.35,4.5-2.69,4.2Z"/>
  <line class="cls-2" x1="22.35" y1="18.61" x2="22.35" y2="31.21"/>
</svg>