<?xml version="1.0" encoding="UTF-8"?>
<svg id="Calque_1" data-name="Calque 1" xmlns="http://www.w3.org/2000/svg" viewBox="0 0 44.82 44.82">
  <defs>
    <style>
      .cls-1 {
        stroke: #fff;
        stroke-width: 2px;
      }

      .cls-1, .cls-2 {
        fill: #fff;
      }

      .cls-1, .cls-3 {
        stroke-miterlimit: 10;
      }

      .cls-3 {
        fill: #57b256;
        stroke: #57b256;
        stroke-width: 5px;
      }
    </style>
  </defs>
  <path class="cls-3" d="M25.03,7.69l2.54,2.29,3.41.18c2,.1,3.59,1.7,3.7,3.7l.18,3.41,2.29,2.54c1.34,1.49,1.34,3.74,0,5.23l-2.29,2.54-.18,3.41c-.1,2-1.7,3.59-3.7,3.7l-3.41.18-2.54,2.29c-1.49,1.34-3.74,1.34-5.23,0l-2.54-2.29-3.41-.18c-2-.1-3.59-1.7-3.7-3.7l-.18-3.41-2.29-2.54c-1.34-1.49-1.34-3.74,0-5.23l2.29-2.54.18-3.41c.1-2,1.7-3.59,3.7-3.7l3.41-.18,2.54-2.29c1.49-1.34,3.74-1.34,5.23,0Z"/>
  <g>
    <path class="cls-2" d="M18.99,26.34c3.25,2.42,9.02-1.37,3.23-3.53-7.25-2.22-1.37-8.56,3.59-5.87l-.46,1.22c-.99-.85-5.21-.71-4.84,1.19.01,2.49,6.52,2.54,5.81,5.65.47,3.09-5.36,4.19-7.75,2.6l.42-1.26Z"/>
    <path class="cls-2" d="M21.49,28.82c-1.22,0-2.39-.27-3.2-.81l-.32-.21.76-2.27.55.41c1.29.96,2.97.79,4,.23.6-.33.94-.77.91-1.18-.04-.6-.83-1.22-2.15-1.71-2.9-.89-3.55-2.38-3.68-3.19-.19-1.19.43-2.42,1.66-3.29,1.32-.93,3.69-1.57,6.03-.3l.38.21-.86,2.3-.54-.46c-.51-.43-2.61-.57-3.63.02-.42.25-.44.5-.4.69.01.92,1.23,1.47,2.52,2.06,1.65.75,3.7,1.69,3.31,3.7.13,1.11-.4,2.1-1.51,2.81-1.04.66-2.46.99-3.83.99ZM19.17,27.37c1.49.73,4.08.58,5.61-.39.81-.51,1.16-1.16,1.05-1.91v-.09s0-.09,0-.09c.27-1.2-.85-1.8-2.73-2.66-1.52-.69-3.09-1.41-3.1-2.87-.13-.62.18-1.24.89-1.65,1.06-.62,3.03-.69,4.19-.25l.1-.26c-1.8-.79-3.57-.29-4.59.43-.91.65-1.38,1.51-1.25,2.32.16,1,1.23,1.85,3.02,2.4,2.24.83,2.77,1.87,2.82,2.59.06.81-.47,1.61-1.42,2.13-1.15.63-2.96.86-4.5.05l-.09.27Z"/>
  </g>
  <line class="cls-1" x1="22.41" y1="14.68" x2="22.41" y2="30.14"/>
</svg>